<svg width="195" height="195" viewBox="0 0 195 195" fill="none" xmlns="http://www.w3.org/2000/svg">
<g clip-path="url(#clip0)">
<path d="M192.964 93.663C191.335 99.5121 189.706 104.16 188.078 108.964C186.449 113.768 184.625 118.713 182.084 124.905L181.367 126.636L180.39 128.726C179.722 130.286 178.761 131.955 177.784 133.827L176.155 136.681L175.927 137.055C175.715 137.445 175.438 137.851 175.178 138.241L173.549 140.627C172.425 142.187 171.334 143.747 170.063 145.306C164.968 151.722 158.934 157.401 152.146 162.167C148.661 164.633 144.979 166.834 141.136 168.749C137.3 170.695 133.307 172.343 129.196 173.678C127.16 174.396 125.076 174.91 123.023 175.487C120.971 176.065 118.87 176.47 116.769 176.782C112.668 177.521 108.512 177.948 104.341 178.061C96.5615 178.347 88.7782 177.602 81.212 175.846C79.4366 175.456 77.7264 174.988 76.065 174.505C74.4036 174.021 72.1233 173.241 72.8074 173.475L73.2635 172.493C76.7166 164.673 77.291 155.96 74.8923 147.786C73.7901 144.073 72.1099 140.539 69.9081 137.305C67.7946 134.325 65.2748 131.629 62.4156 129.288C59.6981 127.17 56.7096 125.393 53.5224 124C50.5827 122.761 47.4903 121.886 44.3197 121.395L42.0719 121.068L39.8568 120.974C38.4468 120.88 37.0318 120.88 35.6219 120.974C33.0209 121.143 30.4449 121.566 27.9339 122.238C25.7439 122.838 23.613 123.621 21.5653 124.577L20.8812 124.905H20.7184L20.4252 124.172C19.1873 121.052 18.7964 119.976 19.3827 121.458C17.9241 117.387 16.7915 113.215 15.9948 108.98C15.3922 105.86 15.1153 103.552 14.9687 101.976C14.8221 100.401 14.7732 99.5121 14.7244 99.0285V98.4202L14.6266 95.7842C14.6266 94.0529 14.6266 91.5105 14.7732 88.2663C15.0604 84.3484 15.6044 80.4518 16.402 76.5993C17.4767 71.5712 19.0137 66.644 20.9953 61.8753C27.4865 46.2287 38.7254 32.8041 53.2618 23.3338C56.5771 21.2191 60.032 19.3123 63.6047 17.6252C78.6504 10.5761 95.5202 7.89389 112.137 9.90862C128.755 11.9233 144.394 18.5471 157.13 28.9645C160.122 31.4194 162.945 34.0556 165.584 36.8569C166.822 38.2762 168.141 39.6176 169.265 41.0994L170.991 43.2519L172.409 45.1703C176.292 50.5512 179.522 56.339 182.035 62.4212C184.576 68.6602 186.302 73.5578 188.029 78.3462C189.755 83.1347 191.4 87.7983 192.915 93.663C194.373 88.2825 195.036 82.7331 194.886 77.1764C194.63 70.9716 193.275 64.8535 190.879 59.0833C188.134 52.3278 184.569 45.9045 180.259 39.9452C179.754 39.2277 179.233 38.5258 178.631 37.8083L176.709 35.4219C175.454 33.8622 174.005 32.3024 172.637 30.7427C169.705 27.6397 166.571 24.7172 163.255 21.9925C156.379 16.3401 148.709 11.641 140.468 8.03269C136.214 6.19089 131.82 4.66309 127.323 3.46262C122.808 2.2109 118.194 1.30854 113.527 0.76425C111.198 0.467897 108.853 0.311923 106.507 0.124753C104.162 -0.0624175 101.8 -0.0624175 99.4546 0.124753C94.767 0.170685 90.0899 0.556526 85.4632 1.27897C76.4173 2.75603 67.6404 5.47183 59.4024 9.34288C55.4616 11.2365 51.6531 13.3727 48.0008 15.7379C44.451 18.0455 41.0664 20.578 37.8696 23.3182C26.4944 32.9849 17.6321 45.0605 11.988 58.5842C9.79483 63.8683 8.09425 69.328 6.90613 74.8992C6.04326 79.1644 5.46658 83.4781 5.1796 87.8139C4.98414 91.4014 4.96785 94.2089 5.01672 96.1274L5.13073 99.0441V99.6992C5.13073 100.245 5.13073 101.259 5.40763 102.975C5.68453 104.69 5.87998 107.186 6.5315 110.773C7.41131 115.471 8.66924 120.097 10.294 124.608C9.74024 122.971 10.066 124.109 11.4342 127.634L11.7111 128.321L12.2486 129.615L13.6494 132.735L15.2782 136.182L16.1577 138.053L16.3695 138.521C16.4509 138.677 16.4998 138.927 16.6952 138.693L17.6725 138.038L21.94 135.012C22.6634 134.509 23.4196 134.05 24.204 133.639L24.7904 133.296L25.0835 133.14L25.1976 133.047L25.7351 132.782C29.0285 131.242 32.6012 130.326 36.2571 130.083C37.3143 130.005 38.3761 130.005 39.4333 130.083H41.0621L42.6909 130.348C45.0888 130.737 47.4221 131.43 49.6296 132.407C52.0062 133.455 54.2384 134.78 56.2751 136.353C58.4231 138.129 60.3227 140.163 61.927 142.405C63.5677 144.854 64.8295 147.518 65.6732 150.313C67.5075 156.5 67.0882 163.101 64.4842 169.03L63.9793 170.091L62.8391 172.134C61.9759 173.507 61.0312 174.91 60.1027 176.345L59.4024 177.39L59.0603 177.921L58.9626 178.045L59.2395 178.155L61.5524 179.075L66.3085 180.915C70.2176 182.475 71.1949 182.631 73.1983 183.255C75.2017 183.879 76.9608 184.316 78.9317 184.815C87.3389 186.772 95.9883 187.606 104.634 187.295C109.274 187.157 113.897 186.682 118.463 185.875C120.792 185.517 123.088 184.94 125.418 184.425C127.747 183.91 130.027 183.208 132.291 182.413C136.861 180.928 141.3 179.098 145.566 176.938C149.836 174.808 153.925 172.362 157.798 169.623C165.324 164.327 172.016 158.024 177.67 150.906C179.07 149.221 180.276 147.428 181.53 145.712L183.273 143.076C183.55 142.639 183.859 142.187 184.103 141.75L184.348 141.345L186.204 138.225C187.296 136.135 188.338 134.263 189.071 132.563L190.146 130.239L190.928 128.321C193.323 122.545 194.678 116.422 194.935 110.212C195.092 104.634 194.429 99.0634 192.964 93.663Z" fill="#D8C2B5"/>
<path d="M71.5696 158.003C70.2388 163.016 67.8374 167.711 64.5169 171.791C62.9614 173.7 61.2513 175.489 59.4025 177.141C57.3263 179.029 55.031 180.682 52.5615 182.069C51.2734 182.797 49.9283 183.428 48.5384 183.957C45.9715 184.919 43.2719 185.518 40.5247 185.735C36.1496 186.052 31.7563 185.417 27.6734 183.879C25.281 182.966 23.0333 181.737 20.9953 180.229C19.9611 179.477 18.9765 178.664 18.0472 177.796C17.6074 177.359 17.184 176.875 16.7605 176.439C16.3234 176.004 15.9257 175.534 15.5714 175.035C12.9493 171.768 11.1138 167.986 10.1964 163.961C10.0009 163.196 9.95208 162.479 9.82177 161.855C9.72151 161.34 9.65622 160.819 9.62632 160.295V158.907C9.53866 157.449 9.59867 155.987 9.80548 154.54C10.311 150.535 11.7118 146.681 13.9126 143.241C16.1134 139.802 19.0625 136.856 22.559 134.606C26.0184 132.388 29.9494 130.933 34.0678 130.348C38.1862 129.763 42.3889 130.061 46.3721 131.222C48.5618 131.865 50.6662 132.75 52.6429 133.858C55.0865 135.246 57.3546 136.9 59.4025 138.786C61.2474 140.449 62.9521 142.248 64.5006 144.168C67.7874 148.287 70.1899 152.989 71.5696 158.003C72.7548 153.711 72.8605 149.212 71.878 144.874C70.8956 140.535 68.8529 136.482 65.9177 133.047C63.557 130.21 60.6757 127.811 57.4153 125.965C54.7775 124.459 51.9615 123.26 49.027 122.393C43.7032 120.85 38.0888 120.454 32.5864 121.234C27.0839 122.013 21.8296 123.948 17.2002 126.901C12.0214 130.228 7.749 134.694 4.73991 139.925C2.38857 144.084 0.874635 148.629 0.277 153.323C0.0108468 155.231 -0.065507 157.158 0.0489681 159.079L0.146696 160.904C0.176722 161.62 0.258356 162.334 0.391016 163.041C0.537608 163.852 0.619048 164.803 0.879656 165.832C2.0881 171.173 4.50686 176.194 7.96494 180.541C8.45676 181.199 9.00134 181.82 9.59374 182.397C10.1475 183.005 10.7013 183.629 11.2225 184.206C12.4529 185.37 13.7585 186.459 15.1317 187.466C17.8572 189.481 20.861 191.124 24.0575 192.348C29.5267 194.43 35.4244 195.274 41.2902 194.813C44.9804 194.531 48.6049 193.716 52.0403 192.395C53.894 191.685 55.6859 190.835 57.399 189.853C60.6521 188.017 63.5369 185.64 65.9177 182.834C67.9168 180.441 69.5108 177.762 70.6412 174.895C72.7249 169.483 73.0485 163.594 71.5696 158.003Z" fill="#E4CBBD"/>
<path d="M15.832 182.101C19.1772 186.923 23.9868 190.647 29.6117 192.77C36.2448 195.088 43.5092 195.149 50.1834 192.941C50.9748 192.7 51.7523 192.419 52.5126 192.099C53.5883 191.714 54.6381 191.266 55.6562 190.758L57.5945 189.759L59.7119 188.434C60.5338 187.931 61.3176 187.373 62.0574 186.765C62.9431 186.118 63.7862 185.42 64.582 184.675C66.6437 182.833 68.4848 180.777 70.0711 178.545C71.0787 177.114 71.9717 175.612 72.7423 174.053C73.4324 172.71 74.0256 171.324 74.5177 169.904C75.3632 167.461 75.9098 164.933 76.1465 162.37C76.6578 157.393 76.1375 152.368 74.6155 147.584C73.7288 144.812 72.5215 142.144 71.0158 139.629C67.6309 133.734 62.2721 129.102 55.8028 126.48C50.2174 124.311 44.0421 123.96 38.228 125.482C40.9956 126.114 43.6669 127.084 46.1766 128.368C48.4004 129.461 50.4923 130.784 52.4149 132.314C56.6203 135.587 60.1408 139.594 62.7904 144.121C63.937 146.044 64.8548 148.085 65.5267 150.204C66.6751 153.823 67.0681 157.623 66.6832 161.387C66.4831 163.286 66.068 165.158 65.4453 166.971C65.093 168.036 64.6686 169.079 64.1748 170.091C63.5814 171.241 62.9066 172.351 62.1551 173.413C60.9366 175.101 59.5452 176.669 58.0017 178.092C57.393 178.647 56.7513 179.168 56.0797 179.652C55.5209 180.114 54.9275 180.536 54.3043 180.916L52.6755 181.929L51.2096 182.678C50.4532 183.091 49.6634 183.446 48.8478 183.739C48.2762 183.992 47.6887 184.21 47.0887 184.394C41.9724 186.027 36.5726 186.689 31.1916 186.343C25.8193 185.968 20.588 184.523 15.832 182.101Z" fill="#80CBDE"/>
<path d="M33.4231 79.6407C33.824 80.4739 34.4619 81.182 35.2637 81.684C36.0416 82.1263 36.9326 82.3531 37.8372 82.3391C38.3945 82.3372 38.9467 82.2367 39.466 82.0428C39.9795 81.8447 40.4469 81.5512 40.8411 81.179C41.2353 80.8069 41.5485 80.3635 41.7626 79.8747C41.9991 79.3206 42.1155 78.7263 42.1046 78.1278C42.1262 77.49 41.9806 76.8573 41.6812 76.2873C41.4056 75.8111 41.0215 75.4005 40.5573 75.0863C40.0489 74.7606 39.5022 74.4936 38.9285 74.2908L37.1042 73.6201C36.4811 73.4056 35.8719 73.1556 35.28 72.8714C34.6777 72.5896 34.1275 72.2156 33.6512 71.764C33.1554 71.2736 32.7726 70.6891 32.5273 70.0483C32.2728 69.2349 32.1735 68.3842 32.2341 67.5371C32.2144 66.6701 32.3864 65.809 32.739 65.0103C33.041 64.308 33.5028 63.6792 34.0909 63.1698C34.6662 62.6693 35.3425 62.2871 36.0781 62.0468C36.8255 61.7901 37.6133 61.6582 38.4073 61.6568C39.421 61.6521 40.4229 61.8653 41.3391 62.2807C42.2998 62.7542 43.1057 63.4719 43.6683 64.3552L42.0395 65.603C41.6341 64.9662 41.0757 64.4314 40.4107 64.0432C39.7541 63.6771 39.0039 63.4935 38.2444 63.5129C37.6909 63.5103 37.1406 63.5946 36.6156 63.7625C36.1118 63.9294 35.6471 64.189 35.2474 64.5268C34.8362 64.8735 34.5131 65.3057 34.3027 65.7902C34.081 66.3468 33.9865 66.9425 34.0258 67.5371C33.9653 68.415 34.2243 69.2858 34.7587 70.0015C35.2596 70.5829 35.888 71.0515 36.5993 71.3741C37.3746 71.7196 38.1748 72.0115 38.9936 72.2475C39.8325 72.4893 40.6367 72.8299 41.388 73.2614C42.1394 73.7 42.7704 74.3043 43.2285 75.0239C43.7635 75.9809 44.0169 77.0592 43.9615 78.1434C43.98 79.0239 43.8139 79.899 43.4728 80.717C43.173 81.4307 42.7241 82.0783 42.1535 82.6199C41.6081 83.1339 40.9522 83.5278 40.2315 83.7741C39.5095 84.042 38.7418 84.1795 37.9675 84.1796C36.7558 84.1895 35.5578 83.9334 34.4656 83.4309C33.316 82.8633 32.3607 81.9918 31.7129 80.9197L33.4231 79.6407Z" fill="#6AC6DD"/>
<path d="M48.0007 62.1714H59.777V63.9963H49.8413V71.6235H59.2069V73.4328H49.8413V81.7931H60.2656V83.618H48.0007V62.1714Z" fill="#6AC6DD"/>
<path d="M64.1909 62.1714H69.7288C70.472 62.1777 71.2131 62.2456 71.944 62.3742C72.664 62.5066 73.3466 62.783 73.9474 63.1852C74.5627 63.6445 75.0542 64.2381 75.3808 64.9165C75.7897 65.8372 75.9789 66.8337 75.9346 67.8333C75.9568 68.8369 75.6553 69.8228 75.0713 70.6564C74.4423 71.4683 73.5182 72.0249 72.4815 72.2162C73.0923 72.2653 73.6857 72.4353 74.2243 72.7153C74.7542 72.985 75.22 73.3567 75.5925 73.8071C75.9791 74.2735 76.2768 74.8015 76.4721 75.3669C76.6854 76.0338 76.7898 76.7283 76.7816 77.4257C76.8239 78.4684 76.6061 79.5057 76.1463 80.4517C75.7582 81.1725 75.2006 81.7971 74.5175 82.2766C73.8947 82.7119 73.1851 83.0198 72.4327 83.1812C71.7392 83.3422 71.0287 83.4259 70.3152 83.4308H64.1909V62.1714ZM65.9175 71.4363H69.6474C70.4158 71.4646 71.1818 71.337 71.8951 71.062C72.4159 70.8546 72.883 70.5405 73.2633 70.1417C73.5734 69.8061 73.7966 69.4054 73.9149 68.9719C74.0206 68.6007 74.0753 68.218 74.0777 67.8333C74.1172 67.203 74.023 66.5717 73.8009 65.9772C73.6052 65.5152 73.2916 65.1076 72.8887 64.7918C72.4981 64.4936 72.0411 64.2855 71.5531 64.1835C71.0208 64.0544 70.4734 63.9915 69.9243 63.9963H65.9175V71.4363ZM65.9175 81.793H70.022C70.8906 81.8265 71.7567 81.6829 72.563 81.3719C73.1405 81.1403 73.6496 80.776 74.0452 80.3113C74.3833 79.9217 74.623 79.4627 74.7456 78.9699C74.8549 78.546 74.915 78.1118 74.9247 77.6753C74.9362 76.9798 74.7975 76.2895 74.5175 75.6476C74.2665 75.1255 73.9062 74.6583 73.4588 74.2751C73.0243 73.9227 72.5202 73.6575 71.9766 73.4952C71.4475 73.3456 70.8994 73.2669 70.3478 73.2612H65.9175V81.793Z" fill="#6AC6DD"/>
<path d="M87.2388 62.1714H89.0793L97.2233 83.618H95.2362L93.135 77.9249H82.8736L80.7073 83.618H78.8179L87.2388 62.1714ZM88.0858 64.355L83.5903 76.1H92.4346L88.0858 64.355Z" fill="#6AC6DD"/>
<path d="M100.481 79.6407C100.882 80.4739 101.519 81.182 102.321 81.684C103.099 82.1263 103.99 82.3531 104.895 82.3391C105.452 82.3372 106.004 82.2367 106.524 82.0427C107.037 81.8447 107.504 81.5512 107.899 81.179C108.293 80.8069 108.606 80.3635 108.82 79.8747C109.057 79.3206 109.173 78.7263 109.162 78.1278C109.184 77.49 109.038 76.8573 108.739 76.2873C108.463 75.8111 108.079 75.4005 107.615 75.0863C107.107 74.7606 106.56 74.4936 105.986 74.2908L104.162 73.6201C103.539 73.4056 102.93 73.1556 102.338 72.8714C101.735 72.5896 101.185 72.2156 100.709 71.764C100.213 71.2736 99.8301 70.6891 99.5849 70.0483C99.3304 69.2349 99.2311 68.3842 99.2917 67.5371C99.272 66.6701 99.444 65.809 99.7966 65.0103C100.099 64.308 100.56 63.6792 101.149 63.1698C101.72 62.6728 102.391 62.2909 103.119 62.0468C103.873 61.7913 104.666 61.6595 105.465 61.6568C106.479 61.6521 107.48 61.8653 108.397 62.2807C109.357 62.7542 110.163 63.4719 110.726 64.3552L109.097 65.603C108.692 64.9662 108.133 64.4314 107.468 64.0432C106.812 63.6771 106.061 63.4935 105.302 63.5129C104.748 63.5103 104.198 63.5946 103.673 63.7625C103.169 63.9294 102.705 64.189 102.305 64.5268C101.894 64.8735 101.571 65.3057 101.36 65.7902C101.139 66.3468 101.044 66.9425 101.083 67.5371C101.011 68.3972 101.247 69.2552 101.751 69.9703C102.252 70.5517 102.88 71.0203 103.592 71.3429C104.367 71.6884 105.167 71.9803 105.986 72.2163C106.825 72.4581 107.629 72.7987 108.38 73.2302C109.132 73.6688 109.763 74.2731 110.221 74.9927C110.756 75.9497 111.009 77.028 110.954 78.1122C110.972 78.9927 110.806 79.8678 110.465 80.6858C110.165 81.3995 109.716 82.0471 109.146 82.5887C108.601 83.1027 107.945 83.4966 107.224 83.7429C106.502 84.0108 105.734 84.1483 104.96 84.1484C103.748 84.1583 102.55 83.9022 101.458 83.3997C100.311 82.8363 99.3555 81.9704 98.7053 80.9041L100.481 79.6407Z" fill="#6AC6DD"/>
<path d="M119.375 63.9963H112.859V62.1714H127.812V63.9963H121.297V83.618H119.505L119.375 63.9963Z" fill="#6AC6DD"/>
<path d="M130.728 62.1714H132.519V83.618H130.728V62.1714Z" fill="#6AC6DD"/>
<path d="M137.797 62.1714H149.589V63.9963H139.588V71.6235H148.986V73.4328H139.588V81.7931H150.012V83.618H137.797V62.1714Z" fill="#6AC6DD"/>
<path d="M153.873 62.1714H156.186L167.913 80.8884V62.1714H169.721V83.618H167.408L155.681 64.901V83.618H153.873V62.1714Z" fill="#6AC6DD"/>
<path d="M66.6993 115.001C65.9065 116.255 64.7831 117.288 63.4417 117.995C62.2248 118.601 60.8714 118.911 59.5 118.9C58.1062 118.915 56.7264 118.632 55.4606 118.073C54.2448 117.526 53.171 116.727 52.317 115.734C51.4028 114.678 50.7064 113.466 50.2647 112.162C49.2877 109.224 49.2877 106.068 50.2647 103.131C50.7104 101.833 51.4066 100.627 52.317 99.5746C53.1835 98.5585 54.2736 97.7383 55.5095 97.1726C56.7716 96.6015 58.1531 96.3135 59.5489 96.3303C60.8118 96.3158 62.0608 96.5828 63.1974 97.1102C64.4213 97.6934 65.4529 98.5895 66.1781 99.6993L64.7122 101.056C64.1881 100.12 63.3899 99.35 62.4156 98.8415C61.5345 98.3861 60.5501 98.145 59.5489 98.1396C58.3749 98.1235 57.2137 98.3748 56.161 98.8727C55.1607 99.3495 54.2821 100.031 53.5875 100.869C52.8594 101.765 52.3075 102.779 51.9587 103.864C51.199 106.296 51.199 108.888 51.9587 111.319C52.3023 112.406 52.8547 113.422 53.5875 114.314C54.2722 115.167 55.1454 115.865 56.1447 116.357C57.1974 116.855 58.3586 117.107 59.5326 117.091C60.0449 117.09 60.5546 117.022 61.0474 116.888C61.5904 116.755 62.1113 116.551 62.5947 116.28C63.1104 115.995 63.5865 115.649 64.0118 115.25C64.4997 114.797 64.9068 114.27 65.2171 113.69L66.6993 115.001Z" fill="#6AC6DD"/>
<path d="M68.7356 107.638C68.7183 106.107 68.966 104.584 69.4685 103.131C69.9205 101.835 70.616 100.63 71.5208 99.5744C72.3769 98.5673 73.4489 97.7481 74.6644 97.1724C75.9421 96.6116 77.331 96.3213 78.7364 96.3213C80.1419 96.3213 81.5308 96.6116 82.8084 97.1724C84.0192 97.7345 85.0909 98.5374 85.952 99.5276C86.8516 100.584 87.5417 101.789 87.988 103.084C88.965 106.021 88.965 109.177 87.988 112.115C87.5452 113.415 86.8549 114.626 85.952 115.687C85.0946 116.676 84.0217 117.475 82.8084 118.026C81.5288 118.58 80.1407 118.867 78.7364 118.867C77.3322 118.867 75.944 118.58 74.6644 118.026C73.4511 117.475 72.3782 116.676 71.5208 115.687C70.6127 114.627 69.917 113.416 69.4685 112.115C68.9727 110.67 68.7251 109.159 68.7356 107.638ZM70.5436 107.638C70.5268 108.902 70.7192 110.16 71.1136 111.366C71.4569 112.453 72.0093 113.468 72.7424 114.361C73.4371 115.199 74.3157 115.88 75.3159 116.357C76.3743 116.84 77.5317 117.09 78.7038 117.09C79.876 117.09 81.0334 116.84 82.0918 116.357C83.0926 115.868 83.9707 115.176 84.6653 114.33C85.3983 113.437 85.9508 112.422 86.2941 111.335C87.0537 108.903 87.0537 106.311 86.2941 103.879C85.9473 102.794 85.3952 101.779 84.6653 100.885C83.9672 100.05 83.0895 99.3687 82.0918 98.8881C81.0334 98.4057 79.876 98.1554 78.7038 98.1554C77.5317 98.1554 76.3743 98.4057 75.3159 98.8881C74.3157 99.3649 73.4371 100.046 72.7424 100.885C72.0125 101.779 71.4604 102.794 71.1136 103.879C70.7171 105.096 70.5247 106.364 70.5436 107.638Z" fill="#6AC6DD"/>
<path d="M92.6952 96.9229H97.7608H98.7869C99.2643 96.9434 99.7386 97.006 100.204 97.11C100.767 97.2022 101.314 97.3647 101.833 97.5935C102.367 97.8234 102.849 98.152 103.25 98.5606C103.696 99.0102 104.045 99.5404 104.276 100.12C104.574 100.872 104.718 101.672 104.699 102.476C104.731 103.347 104.564 104.214 104.211 105.018C103.927 105.609 103.523 106.139 103.022 106.578C102.544 106.98 101.992 107.293 101.393 107.498C100.865 107.687 100.32 107.828 99.7642 107.919L105.367 118.213H103.25L97.8422 108.184H94.4869V118.354H92.6952V96.9229ZM94.4869 106.375H98.2983C99.0855 106.402 99.8693 106.263 100.595 105.969C101.125 105.757 101.595 105.425 101.963 105.002C102.285 104.649 102.514 104.226 102.631 103.77C102.87 102.975 102.87 102.132 102.631 101.337C102.514 100.881 102.285 100.458 101.963 100.105C101.59 99.6862 101.122 99.3554 100.595 99.1377C99.8693 98.8439 99.0855 98.7055 98.2983 98.7322H94.4869V106.375Z" fill="#6AC6DD"/>
<path d="M108.836 96.9229H110.628V116.545H119.668V118.354H108.836V96.9229Z" fill="#6AC6DD"/>
<path d="M136.119 110.15C136.124 111.26 136.009 112.368 135.777 113.456C135.562 114.444 135.159 115.385 134.588 116.233C134.04 117.046 133.29 117.716 132.405 118.182C131.373 118.654 130.243 118.9 129.099 118.9C127.955 118.9 126.825 118.654 125.792 118.182C124.916 117.711 124.172 117.041 123.626 116.233C123.048 115.388 122.644 114.446 122.437 113.456C122.191 112.37 122.071 111.261 122.079 110.15V96.9229H123.887V109.65C123.885 110.47 123.945 111.288 124.066 112.099C124.184 112.942 124.437 113.763 124.815 114.532C125.187 115.268 125.747 115.901 126.444 116.373C127.238 116.892 128.187 117.149 129.148 117.106C130.113 117.148 131.067 116.891 131.868 116.373C132.565 115.902 133.126 115.269 133.497 114.532C133.883 113.766 134.136 112.944 134.246 112.099C134.334 111.286 134.361 110.467 134.327 109.65V96.9229H136.119V110.15Z" fill="#6AC6DD"/>
<path d="M141.054 96.9229H152.83V98.7322H142.846V106.375H152.244V108.184H142.846V116.545H153.27V118.354H141.054V96.9229Z" fill="#6AC6DD"/>
<g opacity="0.91">
<path opacity="0.91" d="M49.3201 144.948H33.1624C32.8751 144.952 32.5915 145.01 32.3281 145.12C32.0648 145.23 31.8269 145.389 31.6283 145.588C31.4297 145.787 31.2744 146.022 31.1715 146.279C31.0686 146.536 31.02 146.81 31.0287 147.085V148.348H27.201C26.9173 148.352 26.6372 148.41 26.3768 148.518C26.1165 148.626 25.8812 148.783 25.6843 148.979C25.4875 149.174 25.3331 149.405 25.2299 149.659C25.1268 149.912 25.0771 150.182 25.0836 150.454V162.994C25.0793 163.264 25.1306 163.533 25.2347 163.784C25.3388 164.036 25.4936 164.265 25.6902 164.459C25.8868 164.653 26.1214 164.808 26.3807 164.916C26.6399 165.023 26.9187 165.08 27.201 165.084H33.1624V167.611H32.3154C31.7437 167.619 31.1986 167.843 30.7989 168.235C30.3992 168.627 30.1773 169.153 30.1817 169.701V170.481C30.1816 170.59 30.2257 170.695 30.3047 170.773C30.3837 170.852 30.4914 170.898 30.6052 170.902H41.6648C41.7218 170.902 41.7782 170.891 41.8307 170.87C41.8831 170.848 41.9306 170.817 41.9701 170.778C42.0097 170.738 42.0405 170.692 42.0608 170.641C42.0811 170.59 42.0904 170.535 42.0882 170.481V169.639C42.0926 169.368 42.0412 169.1 41.9371 168.848C41.833 168.597 41.6783 168.368 41.4816 168.174C41.285 167.979 41.0504 167.824 40.7911 167.717C40.5319 167.61 40.2532 167.553 39.9708 167.549H39.1238V165.084H45.069C45.6407 165.076 46.1858 164.852 46.5855 164.46C46.9852 164.069 47.207 163.542 47.2027 162.994V160.046H49.3201C49.8834 160.038 50.4212 159.82 50.8196 159.439C51.2179 159.057 51.4454 158.542 51.4538 158.003V147.085C51.4625 146.81 51.414 146.536 51.311 146.279C51.2081 146.022 51.0528 145.787 50.8542 145.588C50.6557 145.389 50.4178 145.23 50.1544 145.12C49.891 145.01 49.6074 144.952 49.3201 144.948ZM33.1624 145.79H49.3201C49.4905 145.79 49.6591 145.822 49.8163 145.885C49.9735 145.948 50.1161 146.04 50.2358 146.156C50.3555 146.272 50.4499 146.41 50.5136 146.561C50.5773 146.713 50.609 146.875 50.6069 147.038V147.459H31.892V147.085C31.8832 146.919 31.9094 146.753 31.9691 146.598C32.0288 146.442 32.1207 146.299 32.2394 146.178C32.358 146.057 32.5009 145.961 32.6595 145.894C32.8181 145.827 32.9892 145.792 33.1624 145.79ZM41.3064 169.701V170.122H31.0287V169.701C31.0265 169.538 31.0582 169.376 31.1219 169.225C31.1856 169.073 31.2801 168.936 31.3998 168.82C31.5195 168.704 31.662 168.611 31.8192 168.548C31.9764 168.486 32.1451 168.453 32.3154 168.453H39.9708C40.1398 168.455 40.3067 168.489 40.462 168.553C40.6173 168.617 40.758 168.709 40.8759 168.825C40.9939 168.941 41.0869 169.078 41.1496 169.228C41.2123 169.379 41.2434 169.539 41.2413 169.701H41.3064ZM38.228 167.611H34.0094V165.084H38.228V167.611ZM45.069 164.242H27.1521C26.8094 164.234 26.4838 164.096 26.246 163.86C26.0082 163.624 25.8773 163.307 25.8817 162.978V161.715H46.372V162.978C46.3741 163.144 46.342 163.308 46.2775 163.461C46.213 163.614 46.1174 163.753 45.9961 163.871C45.8749 163.988 45.7306 164.082 45.5714 164.145C45.4122 164.209 45.2414 164.242 45.069 164.242ZM46.372 160.888H25.9305V150.407C25.9262 150.244 25.9558 150.081 26.0175 149.929C26.0792 149.777 26.1718 149.638 26.29 149.521C26.4082 149.403 26.5496 149.309 26.706 149.245C26.8624 149.18 27.0306 149.146 27.201 149.143H31.0287V158.003C31.0243 158.55 31.2462 159.077 31.6459 159.469C32.0456 159.86 32.5907 160.085 33.1624 160.093H46.372V160.888ZM49.3527 159.219H33.1624C32.8197 159.211 32.4941 159.074 32.2563 158.838C32.0185 158.601 31.8876 158.284 31.892 157.956V148.301H50.6069V158.003C50.5985 158.326 50.4597 158.633 50.2197 158.86C49.9798 159.087 49.6573 159.216 49.3201 159.219H49.3527Z" fill="#2078B3"/>
<path opacity="0.91" d="M44.6455 162.573H45.4925V163.415H44.6455V162.573Z" fill="#18A8CB"/>
<path opacity="0.91" d="M42.9513 162.573H43.7983V163.415H42.9513V162.573Z" fill="#18A8CB"/>
<path opacity="0.91" d="M41.2412 162.573H42.0882V163.415H41.2412V162.573Z" fill="#18A8CB"/>
<path opacity="0.91" d="M49.32 149.144H33.1623C33.1053 149.144 33.0489 149.155 32.9964 149.176C32.9439 149.197 32.8965 149.228 32.857 149.268C32.8174 149.307 32.7866 149.354 32.7663 149.405C32.746 149.456 32.7366 149.51 32.7388 149.565V158.003C32.7366 158.058 32.746 158.112 32.7663 158.163C32.7866 158.214 32.8174 158.261 32.857 158.3C32.8965 158.339 32.9439 158.37 32.9964 158.392C33.0489 158.413 33.1053 158.424 33.1623 158.424H49.32C49.377 158.424 49.4335 158.413 49.4859 158.392C49.5384 158.37 49.5858 158.339 49.6254 158.3C49.6649 158.261 49.6958 158.214 49.7161 158.163C49.7364 158.112 49.7457 158.058 49.7435 158.003V149.565C49.7457 149.51 49.7364 149.456 49.7161 149.405C49.6958 149.354 49.6649 149.307 49.6254 149.268C49.5858 149.228 49.5384 149.197 49.4859 149.176C49.4335 149.155 49.377 149.144 49.32 149.144ZM36.143 156.693H37.7718V155.851H36.143V155.024H36.99V154.182H36.143V153.324H36.99V152.481H36.143V151.639H38.684V157.535H36.143V156.693ZM42.5605 154.104C42.4588 154.127 42.3528 154.127 42.251 154.104H41.9253C41.8233 154.125 41.7178 154.125 41.6158 154.104C41.5005 154.046 41.4043 153.958 41.3381 153.85C41.2719 153.743 41.2384 153.62 41.2412 153.495C41.2405 153.401 41.2677 153.309 41.3195 153.229C41.3714 153.149 41.4459 153.084 41.5344 153.043C41.6888 152.965 41.8204 152.852 41.9172 152.713C42.0139 152.574 42.0727 152.414 42.0882 152.247L42.6582 152.809C42.8403 152.996 42.9446 153.24 42.9514 153.495C42.9547 153.622 42.9195 153.747 42.8502 153.855C42.7808 153.963 42.6801 154.049 42.5605 154.104ZM41.6647 154.993H41.9253H42.251H42.5116V157.535H41.6647V154.993ZM45.4923 154.182H46.3719V157.535H45.5249L45.4923 154.182ZM45.6552 153.339L45.9158 152.559L46.1764 153.339H45.6552ZM48.9128 157.535H47.284V153.62L46.3719 151.109C46.3573 151.056 46.3314 151.007 46.2957 150.964C46.26 150.922 46.2154 150.887 46.1647 150.862C46.114 150.837 46.0585 150.822 46.0016 150.819C45.9447 150.816 45.8877 150.824 45.8344 150.844C45.7717 150.864 45.7152 150.899 45.6698 150.945C45.6244 150.992 45.5914 151.048 45.5738 151.109L44.7431 153.62C44.7291 153.666 44.7291 153.715 44.7431 153.76V157.535H43.4726V154.54C43.7442 154.254 43.8951 153.882 43.8961 153.495C43.8968 153.018 43.7041 152.56 43.3586 152.216L42.0719 150.953C42.0164 150.892 41.9422 150.851 41.86 150.834C41.7779 150.817 41.6922 150.826 41.6158 150.859C41.539 150.892 41.4728 150.945 41.4241 151.01C41.3754 151.076 41.346 151.153 41.3389 151.234V152.138C41.342 152.167 41.3358 152.196 41.3212 152.221C41.3067 152.246 41.2844 152.266 41.2575 152.279C41.025 152.394 40.8303 152.569 40.6952 152.783C40.5601 152.998 40.4897 153.245 40.4919 153.495C40.493 153.882 40.6439 154.254 40.9154 154.54V157.535H39.645V151.296C39.645 151.187 39.6009 151.082 39.522 151.004C39.443 150.925 39.3353 150.879 39.2215 150.875H35.7195C35.6042 150.879 35.4947 150.924 35.4131 151.003C35.3315 151.081 35.2838 151.186 35.2798 151.296V157.535H33.651V149.986H48.9617L48.9128 157.535Z" fill="#80CBDE"/>
</g>
</g>
<defs>
<clipPath id="clip0">
<rect width="195" height="195" fill="white"/>
</clipPath>
</defs>
</svg>
