<svg id="Calque_1" data-name="Calque 1" xmlns="http://www.w3.org/2000/svg" viewBox="0 0 119.72 125.02"><defs><style>.cls-1{fill:#d8c2b5;}.cls-2{fill:#e4cbbd;}.cls-3{fill:#80cbde;}.cls-4{fill:#6ac6dd;}.cls-5{opacity:0.91;}.cls-6{fill:#2078b3;}.cls-7{fill:#18a8cb;}</style></defs><path class="cls-1" d="M120,53.75c-1,3.75-2,6.73-3,9.81s-2.12,6.25-3.68,10.22l-.44,1.11-.6,1.34c-.41,1-1,2.07-1.6,3.27l-1,1.83-.14.24c-.13.25-.3.51-.46.76l-1,1.53c-.69,1-1.36,2-2.14,3a53.75,53.75,0,0,1-11,10.81,51,51,0,0,1-6.76,4.22,49.85,49.85,0,0,1-7.33,3.16c-1.25.46-2.53.79-3.79,1.16s-2.55.63-3.84.83a48.74,48.74,0,0,1-7.63.82,51.84,51.84,0,0,1-14.2-1.42c-1.09-.25-2.14-.55-3.16-.86s-2.42-.81-2-.66a0,0,0,0,1,0,0h0l.28-.63a24,24,0,0,0,1-15.84,24.64,24.64,0,0,0-3.06-6.72,25.93,25.93,0,0,0-4.6-5.14,25.29,25.29,0,0,0-5.46-3.39,23.23,23.23,0,0,0-5.65-1.67l-1.38-.21L26,71.26a18.77,18.77,0,0,0-2.6,0,23.46,23.46,0,0,0-4.72.81,24,24,0,0,0-3.91,1.5l-.42.21-.1,0h0l-.18-.47c-.76-2-1-2.69-.64-1.74a54.31,54.31,0,0,1-2.08-8c-.37-2-.54-3.48-.63-4.49s-.12-1.58-.15-1.89l0-.39-.06-1.69c0-1.11,0-2.74.09-4.82a60.1,60.1,0,0,1,1-7.48,55.79,55.79,0,0,1,2.82-9.44A54,54,0,0,1,34.23,8.66,56.65,56.65,0,0,1,40.58,5,52.73,52.73,0,0,1,98,12.27a56.51,56.51,0,0,1,5.19,5.06c.76.91,1.57,1.77,2.26,2.72l1.06,1.38.87,1.23a55.12,55.12,0,0,1,5.91,11.06c1.56,4,2.62,7.14,3.68,10.21s2.07,6.06,3,9.82a38.17,38.17,0,0,0,1.21-10.57,35.15,35.15,0,0,0-2.46-11.6,59.36,59.36,0,0,0-6.52-12.27c-.31-.46-.63-.91-1-1.37l-1.18-1.53c-.77-1-1.66-2-2.5-3a63.73,63.73,0,0,0-5.76-5.61A59.39,59.39,0,0,0,87.77-1.15,56.25,56.25,0,0,0,79.7-4.08a53.9,53.9,0,0,0-8.47-1.73C69.8-6,68.36-6.1,66.92-6.22s-2.89-.12-4.33,0A57,57,0,0,0,54-5.48,58.73,58.73,0,0,0,38-.31a62.68,62.68,0,0,0-7,4.1,59.08,59.08,0,0,0-6.22,4.86A60,60,0,0,0,8.89,31.26,61.8,61.8,0,0,0,5.77,41.72,65.23,65.23,0,0,0,4.71,50c-.12,2.3-.13,4.1-.1,5.33l.07,1.87,0,.42c0,.35,0,1,.17,2.1s.29,2.7.69,5a59.34,59.34,0,0,0,2.31,8.87c-.34-1.05-.14-.32.7,1.94l.17.44.33.83.86,2,1,2.21.54,1.2.13.3c.05.1.08.26.2.11l.6-.42L15,80.26a12.93,12.93,0,0,1,1.39-.88l.36-.22.18-.1L17,79l.33-.17a17.49,17.49,0,0,1,6.46-1.73,12.71,12.71,0,0,1,1.95,0l1,0,1,.17A16.85,16.85,0,0,1,32,78.59a19.47,19.47,0,0,1,4.08,2.53A20.25,20.25,0,0,1,39.55,85a19.33,19.33,0,0,1,2.3,5.07,18.16,18.16,0,0,1-.73,12l-.31.68-.7,1.31c-.53.88-1.11,1.78-1.68,2.7l-.43.67-.21.34-.06.08s0,0,0,0h0l.17.07,1.42.59,2.92,1.18c2.4,1,3,1.1,4.23,1.5s2.31.68,3.52,1a57.64,57.64,0,0,0,15.78,1.59,56.45,56.45,0,0,0,8.49-.91c1.43-.23,2.84-.6,4.27-.93s2.83-.78,4.22-1.29a55.77,55.77,0,0,0,8.15-3.51,56.89,56.89,0,0,0,7.51-4.69,59.86,59.86,0,0,0,12.2-12c.86-1.08,1.6-2.23,2.37-3.33l1.07-1.69c.17-.28.36-.57.51-.85l.15-.26,1.14-2c.67-1.34,1.31-2.54,1.76-3.63l.66-1.49.48-1.23a35.25,35.25,0,0,0,2.46-11.61A38.1,38.1,0,0,0,120,53.75Z" transform="translate(-1.53 6.3)"/><path class="cls-2" d="M45.47,95a24,24,0,0,1-4.33,8.84A29.56,29.56,0,0,1,38,107.27a23,23,0,0,1-4.2,3.16,17.78,17.78,0,0,1-2.47,1.21,17.42,17.42,0,0,1-4.92,1.14,17.87,17.87,0,0,1-7.89-1.19,17,17,0,0,1-4.1-2.34,19.3,19.3,0,0,1-1.81-1.56c-.27-.28-.53-.59-.79-.87a6.85,6.85,0,0,1-.73-.9,17.92,17.92,0,0,1-3.3-7.1c-.12-.49-.15-.95-.23-1.35a7.78,7.78,0,0,1-.12-1l0-.89a14.5,14.5,0,0,1,.11-2.8A18,18,0,0,1,15.38,80,17.25,17.25,0,0,1,30,77.83a18.17,18.17,0,0,1,3.85,1.69A22.69,22.69,0,0,1,38,82.68a29.49,29.49,0,0,1,3.13,3.45A25.18,25.18,0,0,1,45.47,95,18,18,0,0,0,42,79a19.11,19.11,0,0,0-5.22-4.54,23.71,23.71,0,0,0-5.15-2.29,23.15,23.15,0,0,0-19.54,2.89,24,24,0,0,0-7.65,8.35A24.19,24.19,0,0,0,1.7,92a19.48,19.48,0,0,0-.14,3.69l.06,1.17a10,10,0,0,0,.15,1.37c.09.52.14,1.13.3,1.79a23.92,23.92,0,0,0,4.35,9.43,10,10,0,0,0,1,1.19c.34.39.68.79,1,1.16a25.3,25.3,0,0,0,2.4,2.09,22.88,22.88,0,0,0,5.48,3.13,23.45,23.45,0,0,0,10.58,1.58,22.52,22.52,0,0,0,6.6-1.55,23.15,23.15,0,0,0,3.29-1.63A19.48,19.48,0,0,0,42,110.92a18.75,18.75,0,0,0,2.9-5.09A18.31,18.31,0,0,0,45.47,95Z" transform="translate(-1.53 6.3)"/><path class="cls-3" d="M11.25,110.45a18.14,18.14,0,0,0,8.46,6.84,18.87,18.87,0,0,0,12.63.11,14.48,14.48,0,0,0,1.43-.54A17.15,17.15,0,0,0,35.7,116l1.19-.64,1.3-.85a12.71,12.71,0,0,0,1.44-1.07,16.61,16.61,0,0,0,1.55-1.34,23.31,23.31,0,0,0,3.37-3.93,21.9,21.9,0,0,0,1.64-2.88,21,21,0,0,0,1.09-2.66,21.32,21.32,0,0,0,1-4.83,24.35,24.35,0,0,0-.94-9.48,24.94,24.94,0,0,0-2.21-5.1,19.2,19.2,0,0,0-9.34-8.43A16.87,16.87,0,0,0,25,74.15,20.41,20.41,0,0,1,29.88,76a21,21,0,0,1,3.83,2.53,26.37,26.37,0,0,1,6.37,7.57A19,19,0,0,1,41.76,90a18.47,18.47,0,0,1,.71,7.17,16.88,16.88,0,0,1-.76,3.58,16.49,16.49,0,0,1-.78,2,18.06,18.06,0,0,1-1.24,2.13,19.78,19.78,0,0,1-2.55,3,13.35,13.35,0,0,1-1.18,1,9.28,9.28,0,0,1-1.09.81l-1,.65-.9.48a10,10,0,0,1-1.45.68,9.34,9.34,0,0,1-1.08.42,25.47,25.47,0,0,1-9.76,1.25A23.77,23.77,0,0,1,11.25,110.45Z" transform="translate(-1.53 6.3)"/><path class="cls-4" d="M22.05,44.76a3.13,3.13,0,0,0,1.13,1.31,3,3,0,0,0,1.58.42,2.78,2.78,0,0,0,1-.19,2.57,2.57,0,0,0,1.41-1.39,2.83,2.83,0,0,0,.21-1.12,2.45,2.45,0,0,0-.26-1.18,2.32,2.32,0,0,0-.69-.77,4.77,4.77,0,0,0-1-.51l-1.12-.43a10.2,10.2,0,0,1-1.12-.48,3.78,3.78,0,0,1-1-.71,3.13,3.13,0,0,1-.69-1.1A4.53,4.53,0,0,1,21.32,37a3.94,3.94,0,0,1,.31-1.62,3.27,3.27,0,0,1,.83-1.18,3.49,3.49,0,0,1,1.22-.72,4.26,4.26,0,0,1,1.43-.25,4.16,4.16,0,0,1,1.8.4,3.61,3.61,0,0,1,1.43,1.33l-1,.8a3,3,0,0,0-1-1,2.51,2.51,0,0,0-1.33-.34,3.11,3.11,0,0,0-1,.16,2.51,2.51,0,0,0-.84.49,2.21,2.21,0,0,0-.58.81A2.67,2.67,0,0,0,22.42,37a2.44,2.44,0,0,0,.45,1.58,3.29,3.29,0,0,0,1.13.88,11,11,0,0,0,1.47.56,6.5,6.5,0,0,1,1.47.65,3.39,3.39,0,0,1,1.13,1.13,3.84,3.84,0,0,1,.45,2,4.22,4.22,0,0,1-.3,1.65,3.62,3.62,0,0,1-.81,1.22,3.23,3.23,0,0,1-1.18.74,3.85,3.85,0,0,1-1.39.26,4.87,4.87,0,0,1-2.15-.48A4.15,4.15,0,0,1,21,45.58Z" transform="translate(-1.53 6.3)"/><path class="cls-4" d="M31,33.56h7.23v1.17H32.13v4.89h5.75v1.16H32.13v5.36h6.4v1.17H31Z" transform="translate(-1.53 6.3)"/><path class="cls-4" d="M40.94,33.56h3.4a7.92,7.92,0,0,1,1.36.13,3.2,3.2,0,0,1,1.23.52,3,3,0,0,1,.88,1.11,4.31,4.31,0,0,1,.34,1.87A3.13,3.13,0,0,1,47.62,39a2.59,2.59,0,0,1-1.59,1v0a2.72,2.72,0,0,1,1.07.32,2.67,2.67,0,0,1,.84.7,3.25,3.25,0,0,1,.54,1,4.34,4.34,0,0,1,.19,1.32,4.21,4.21,0,0,1-.39,1.94,3.36,3.36,0,0,1-1,1.17,3.45,3.45,0,0,1-1.28.58,5.69,5.69,0,0,1-1.3.16H40.94ZM42,39.5h2.29a3.35,3.35,0,0,0,1.38-.24,2.37,2.37,0,0,0,.84-.59,1.83,1.83,0,0,0,.4-.75,2.84,2.84,0,0,0,.1-.73A3,3,0,0,0,46.84,36a1.91,1.91,0,0,0-.56-.76,2,2,0,0,0-.82-.39,3.93,3.93,0,0,0-1-.12H42Zm0,6.64h2.52a3.77,3.77,0,0,0,1.56-.27,2.34,2.34,0,0,0,.91-.68,2.11,2.11,0,0,0,.43-.86,3.8,3.8,0,0,0,.11-.83,3.24,3.24,0,0,0-.25-1.3,2.69,2.69,0,0,0-.65-.88,2.61,2.61,0,0,0-.91-.5,3.67,3.67,0,0,0-1-.15H42Z" transform="translate(-1.53 6.3)"/><path class="cls-4" d="M55.09,33.56h1.13l5,13.75H60l-1.29-3.65H52.41l-1.33,3.65H49.92Zm.52,1.4-2.76,7.53h5.43Z" transform="translate(-1.53 6.3)"/><path class="cls-4" d="M63.22,44.76a3.13,3.13,0,0,0,1.13,1.31,3,3,0,0,0,1.58.42,2.78,2.78,0,0,0,1-.19,2.57,2.57,0,0,0,1.41-1.39,2.83,2.83,0,0,0,.21-1.12,2.45,2.45,0,0,0-.26-1.18,2.32,2.32,0,0,0-.69-.77,4.77,4.77,0,0,0-1-.51l-1.12-.43a10.2,10.2,0,0,1-1.12-.48,3.78,3.78,0,0,1-1-.71,3.13,3.13,0,0,1-.69-1.1A4.53,4.53,0,0,1,62.49,37a3.94,3.94,0,0,1,.31-1.62,3.27,3.27,0,0,1,.83-1.18,3.54,3.54,0,0,1,1.21-.72,4.36,4.36,0,0,1,1.44-.25,4.16,4.16,0,0,1,1.8.4,3.61,3.61,0,0,1,1.43,1.33l-1,.8a3,3,0,0,0-1-1,2.51,2.51,0,0,0-1.33-.34,3.11,3.11,0,0,0-1,.16,2.51,2.51,0,0,0-.84.49,2.21,2.21,0,0,0-.58.81A2.67,2.67,0,0,0,63.59,37,2.44,2.44,0,0,0,64,38.56a3.29,3.29,0,0,0,1.13.88,11,11,0,0,0,1.47.56,6.5,6.5,0,0,1,1.47.65,3.39,3.39,0,0,1,1.13,1.13,3.84,3.84,0,0,1,.45,2,4.22,4.22,0,0,1-.3,1.65,3.62,3.62,0,0,1-.81,1.22,3.23,3.23,0,0,1-1.18.74,3.85,3.85,0,0,1-1.39.26,4.87,4.87,0,0,1-2.15-.48,4.15,4.15,0,0,1-1.69-1.6Z" transform="translate(-1.53 6.3)"/><path class="cls-4" d="M74.82,34.73h-4V33.56H80v1.17h-4V47.31h-1.1Z" transform="translate(-1.53 6.3)"/><path class="cls-4" d="M81.79,33.56h1.1V47.31h-1.1Z" transform="translate(-1.53 6.3)"/><path class="cls-4" d="M86.13,33.56h7.24v1.17H87.23v4.89H93v1.16H87.23v5.36h6.4v1.17h-7.5Z" transform="translate(-1.53 6.3)"/><path class="cls-4" d="M96,33.56h1.42l7.2,12h0v-12h1.11V47.31h-1.42l-7.2-12h0v12H96Z" transform="translate(-1.53 6.3)"/><path class="cls-4" d="M42.48,67.43a5.36,5.36,0,0,1-2,1.92,5.15,5.15,0,0,1-2.42.58,5.77,5.77,0,0,1-2.48-.53,5.57,5.57,0,0,1-1.93-1.5,6.94,6.94,0,0,1-1.26-2.29,9.54,9.54,0,0,1,0-5.79,7,7,0,0,1,1.26-2.28A5.71,5.71,0,0,1,35.61,56a5.64,5.64,0,0,1,2.48-.54,5,5,0,0,1,2.24.5,4.55,4.55,0,0,1,1.83,1.66l-.9.87a3.5,3.5,0,0,0-1.41-1.42,3.75,3.75,0,0,0-1.76-.45,4.55,4.55,0,0,0-2.08.47,4.68,4.68,0,0,0-1.58,1.28,6,6,0,0,0-1,1.92,8.34,8.34,0,0,0,0,4.78,5.85,5.85,0,0,0,1,1.92A4.68,4.68,0,0,0,36,68.3a4.55,4.55,0,0,0,2.08.47,3.42,3.42,0,0,0,.93-.13,3.67,3.67,0,0,0,.95-.39,4.35,4.35,0,0,0,.87-.66,3.83,3.83,0,0,0,.74-1Z" transform="translate(-1.53 6.3)"/><path class="cls-4" d="M43.73,62.71a8.89,8.89,0,0,1,.45-2.89,7.18,7.18,0,0,1,1.26-2.28A5.81,5.81,0,0,1,47.37,56a6,6,0,0,1,5,0,5.81,5.81,0,0,1,1.93,1.51,7.16,7.16,0,0,1,1.25,2.28,9.54,9.54,0,0,1,0,5.79,7.11,7.11,0,0,1-1.25,2.29,5.66,5.66,0,0,1-1.93,1.5,6.07,6.07,0,0,1-5,0,5.66,5.66,0,0,1-1.93-1.5,7.13,7.13,0,0,1-1.26-2.29A9,9,0,0,1,43.73,62.71Zm1.11,0a7.67,7.67,0,0,0,.35,2.39,5.84,5.84,0,0,0,1,1.92,4.68,4.68,0,0,0,1.58,1.28,4.84,4.84,0,0,0,4.16,0A4.77,4.77,0,0,0,53.51,67a5.84,5.84,0,0,0,1-1.92,8.34,8.34,0,0,0,0-4.78,5.94,5.94,0,0,0-1-1.92,4.77,4.77,0,0,0-1.58-1.28,4.84,4.84,0,0,0-4.16,0,4.68,4.68,0,0,0-1.58,1.28,5.94,5.94,0,0,0-1,1.92A7.72,7.72,0,0,0,44.84,62.71Z" transform="translate(-1.53 6.3)"/><path class="cls-4" d="M58.44,55.84h3.11l.63,0a4.77,4.77,0,0,1,.87.12,4,4,0,0,1,1,.31,2.73,2.73,0,0,1,.87.62,3,3,0,0,1,.63,1,4,4,0,0,1,.26,1.51,3.86,3.86,0,0,1-.3,1.63,3.12,3.12,0,0,1-.73,1,3.09,3.09,0,0,1-1,.59,5.53,5.53,0,0,1-1,.27l3.44,6.6H64.92L61.6,63.06H59.54v6.52h-1.1Zm1.1,6.06h2.34a3.32,3.32,0,0,0,1.41-.26,2.2,2.2,0,0,0,.84-.62,1.88,1.88,0,0,0,.41-.79,2.82,2.82,0,0,0,0-1.56,1.88,1.88,0,0,0-.41-.79,2.3,2.3,0,0,0-.84-.62A3.32,3.32,0,0,0,61.88,57H59.54Z" transform="translate(-1.53 6.3)"/><path class="cls-4" d="M68.35,55.84h1.1V68.42H75v1.16H68.35Z" transform="translate(-1.53 6.3)"/><path class="cls-4" d="M85.1,64.32a10.37,10.37,0,0,1-.21,2.12,5.26,5.26,0,0,1-.73,1.78,3.74,3.74,0,0,1-1.34,1.25,4.71,4.71,0,0,1-4.06,0,3.8,3.8,0,0,1-1.33-1.25,5.06,5.06,0,0,1-.73-1.78,9.71,9.71,0,0,1-.22-2.12V55.84h1.11V64a10.92,10.92,0,0,0,.11,1.57,5.33,5.33,0,0,0,.46,1.56,3.1,3.1,0,0,0,1,1.18,2.72,2.72,0,0,0,1.66.47,2.76,2.76,0,0,0,1.67-.47,3.08,3.08,0,0,0,1-1.18,5,5,0,0,0,.46-1.56A11,11,0,0,0,84,64V55.84h1.1Z" transform="translate(-1.53 6.3)"/><path class="cls-4" d="M88.13,55.84h7.23V57H89.23v4.9H95v1.16H89.23v5.36h6.4v1.16h-7.5Z" transform="translate(-1.53 6.3)"/><g id="Layer_22" data-name="Layer 22" class="cls-5"><path class="cls-6" d="M31.81,86.63H21.89A1.33,1.33,0,0,0,20.58,88v.81H18.23a1.32,1.32,0,0,0-1.3,1.35V98.2a1.32,1.32,0,0,0,1.3,1.34h3.66v1.62h-.52a1.33,1.33,0,0,0-1.31,1.34V103a.27.27,0,0,0,.26.27h6.79a.26.26,0,0,0,.26-.27v-.54a1.32,1.32,0,0,0-1.3-1.34h-.52V99.54H29.2a1.33,1.33,0,0,0,1.31-1.34V96.31h1.3A1.33,1.33,0,0,0,33.12,95V88A1.33,1.33,0,0,0,31.81,86.63Zm-9.92.54h9.92a.79.79,0,0,1,.79.8v.27H21.11V88A.79.79,0,0,1,21.89,87.17Zm5,15.33v.27H20.58v-.27a.79.79,0,0,1,.79-.8h4.7A.79.79,0,0,1,26.85,102.5ZM25,101.16H22.41V99.54H25ZM29.2,99h-11a.8.8,0,0,1-.78-.81v-.81H30v.81A.8.8,0,0,1,29.2,99ZM30,96.85H17.45V90.13a.79.79,0,0,1,.78-.81h2.35V95a1.33,1.33,0,0,0,1.31,1.34H30Zm1.83-1.07H21.89a.8.8,0,0,1-.78-.81V88.78H32.6V95A.8.8,0,0,1,31.81,95.78Z" transform="translate(-1.53 6.3)"/><path class="cls-7" d="M28.94,97.93h.52v.54h-.52Z" transform="translate(-1.53 6.3)"/><path class="cls-7" d="M27.9,97.93h.52v.54H27.9Z" transform="translate(-1.53 6.3)"/><path class="cls-7" d="M26.85,97.93h.52v.54h-.52Z" transform="translate(-1.53 6.3)"/><path class="cls-3" d="M31.81,89.32H21.89a.26.26,0,0,0-.26.27V95a.26.26,0,0,0,.26.27h9.92a.26.26,0,0,0,.26-.27V89.59A.26.26,0,0,0,31.81,89.32Zm-8.09,4.84h1v-.54h-1v-.53h.52v-.54h-.52V92h.52v-.54h-.52v-.54h1.56V94.7H23.72Zm3.94-1.66a.41.41,0,0,1-.19,0h-.2a.45.45,0,0,1-.19,0,.43.43,0,0,1-.23-.39.32.32,0,0,1,.18-.29.64.64,0,0,0,.34-.51l.35.36a.67.67,0,0,1,.18.44.42.42,0,0,1-.24.39Zm-.55.57.16,0h.2l.16,0V94.7h-.52Zm2.35-.52H30V94.7h-.52Zm.1-.54.16-.5.16.5Zm2,2.69h-1V92.19L30,90.58a.25.25,0,0,0-.33-.17.25.25,0,0,0-.16.17L29,92.19a.16.16,0,0,0,0,.09V94.7h-.78V92.78a1,1,0,0,0,.26-.67,1.18,1.18,0,0,0-.33-.82l-.79-.81a.24.24,0,0,0-.28-.06.29.29,0,0,0-.17.24v.58a.09.09,0,0,1-.05.09.87.87,0,0,0-.47.78,1,1,0,0,0,.26.67V94.7h-.78v-4a.27.27,0,0,0-.26-.27H23.46a.28.28,0,0,0-.27.27v4h-1V89.86h9.4Z" transform="translate(-1.53 6.3)"/></g></svg>