<svg xmlns="http://www.w3.org/2000/svg" xmlns:xlink="http://www.w3.org/1999/xlink" viewBox="0 0 919.13 826.39"><defs><style>.cls-1{fill:url(#Dégradé_sans_nom_316);}.cls-2{fill:#765d55;}.cls-3{fill:url(#Dégradé_sans_nom_10);}.cls-4{fill:url(#Dégradé_sans_nom_16);}.cls-5{fill:#24130f;}.cls-6{fill:url(#Dégradé_sans_nom_58);}.cls-7{fill:#cc8f75;}.cls-8{fill:#a1715c;}.cls-9{fill:#7a4c2f;}.cls-10{fill:url(#Dégradé_cou);}.cls-11{fill:#240c04;}.cls-12{fill:#d3d1cb;}.cls-13{fill:#4d322a;}.cls-14{fill:#dd842a;}.cls-15{fill:#c27425;}.cls-16{fill:url(#Dégradé_sans_nom_92);}.cls-17{fill:url(#Dégradé_sans_nom_92-2);}.cls-18{fill:#4d1e19;}.cls-19{fill:url(#Dégradé_cou-2);}.cls-20{fill:#7e5344;}.cls-21{fill:#e87d6b;}.cls-22{fill:#a75a4d;}.cls-23{fill:#ffa2bb;opacity:0.1;}.cls-24{fill:#ffc9b2;opacity:0.3;}.cls-25{fill:#bf672a;}.cls-26{fill:#472710;}</style><linearGradient id="Dégradé_sans_nom_316" x1="452.79" y1="98.65" x2="470.52" y2="514.92" gradientTransform="matrix(1.04, 0.26, -0.3, 1.18, 115.8, -294.04)" gradientUnits="userSpaceOnUse"><stop offset="0" stop-color="#81ff15"/><stop offset="0.07" stop-color="#f6ff00"/><stop offset="0.1" stop-color="#eaf500"/><stop offset="0.23" stop-color="#adc600"/><stop offset="0.36" stop-color="#789d00"/><stop offset="0.48" stop-color="#4d7b00"/><stop offset="0.6" stop-color="#2b6100"/><stop offset="0.71" stop-color="#134e00"/><stop offset="0.82" stop-color="#054300"/><stop offset="0.91" stop-color="#003f00"/></linearGradient><linearGradient id="Dégradé_sans_nom_10" x1="381.1" y1="241.85" x2="508.7" y2="204.42" gradientUnits="userSpaceOnUse"><stop offset="0" stop-color="#4f3425"/><stop offset="0.27" stop-color="#543a2c"/><stop offset="0.65" stop-color="#63493e"/><stop offset="1" stop-color="#765d55"/></linearGradient><linearGradient id="Dégradé_sans_nom_16" x1="457.87" y1="303.72" x2="465.1" y2="256.93" gradientUnits="userSpaceOnUse"><stop offset="0.12" stop-color="#33241b"/><stop offset="0.43" stop-color="#3e2b1f"/><stop offset="1" stop-color="#4f3425"/></linearGradient><linearGradient id="Dégradé_sans_nom_58" x1="439.05" y1="397.01" x2="422.48" y2="438.01" gradientUnits="userSpaceOnUse"><stop offset="0" stop-color="#7e5344"/><stop offset="0.23" stop-color="#9c6a57"/><stop offset="0.49" stop-color="#b67e67"/><stop offset="0.72" stop-color="#c68b71"/><stop offset="0.9" stop-color="#cc8f75"/></linearGradient><linearGradient id="Dégradé_cou" x1="478.73" y1="307.93" x2="462.15" y2="303.8" gradientUnits="userSpaceOnUse"><stop offset="0" stop-color="#240c04"/><stop offset="0.18" stop-color="#2b1109"/><stop offset="0.43" stop-color="#3d2016"/><stop offset="0.72" stop-color="#5b372b"/><stop offset="1" stop-color="#7e5344"/><stop offset="1" stop-color="#4f3425"/></linearGradient><linearGradient id="Dégradé_sans_nom_92" x1="389.29" y1="409.63" x2="392.89" y2="526.39" gradientUnits="userSpaceOnUse"><stop offset="0" stop-color="#240c04"/><stop offset="0.13" stop-color="#2b1107"/><stop offset="0.31" stop-color="#3d1f11"/><stop offset="0.52" stop-color="#5b3520"/><stop offset="0.7" stop-color="#7a4c30"/></linearGradient><linearGradient id="Dégradé_sans_nom_92-2" x1="443.63" y1="311.6" x2="450.76" y2="542.88" xlink:href="#Dégradé_sans_nom_92"/><linearGradient id="Dégradé_cou-2" x1="413.47" y1="304.86" x2="445.06" y2="304.86" xlink:href="#Dégradé_cou"/></defs><g id="Calque_2" data-name="Calque 2"><g id="Illustration"><path class="cls-1" d="M87.33,798.32q-6.27-.8-12.53-1.64C9.16,787.82.81,708.5.05,654.87-.93,585,12.31,514.73,30.71,447.6,65.46,320.85,125.79,161.94,240.87,86.21,270.39,66.78,305,54.86,340.66,59.66A175.83,175.83,0,0,0,393,58.58L722,3.55C792.34-8.21,868.66,7.4,902.73,78.13c37.77,78.41,1,188.33-17.63,267.75-15.1,64.39-26.9,129.11-57,188.6C793.46,603,757,672.66,729.32,744.3,720.55,767,709.63,781.63,688.08,793c-14,7.34-29.1,12.34-44.31,16.32-39.06,10.2-79.82,13.83-120,15.7-91.53,4.26-183.57-1.76-274.65-10.7C195.45,809,140.8,805.05,87.33,798.32Z"/><g id="Chapeau"><polygon class="cls-2" points="297.59 336.88 297.99 335.59 359.94 298.28 359.62 324.02 337.55 342.9 306.91 343.55 297.59 336.88"/><path class="cls-3" d="M380.05,242.68s13.21-22.56,18.47-28.3,25.12-23.66,43.33-24.44,37.48,1.56,46.83,9.93S504,212.33,510.2,224.31l2.92,7.28-2.34,7.32-52.09-1.65-41.18-.49L387.81,240Z"/><path id="Chapeau_devant" data-name="Chapeau devant" class="cls-4" d="M297.59,336.88c18.84,5.43,42.05-7.55,43.4-8.05a.86.86,0,0,0,.27-.2c1.17-1.05,10.53-9.5,11.94-12.73s8.91-23.44,9.67-25.49a2.25,2.25,0,0,0,.09-.35l3.71-19.88c0-.1.05-.2.08-.3.61-1.82,6.75-19.85,11.61-25.18,5.12-5.62,5.7-10.9,21.89-17.11s49.31-6.29,54.68-4.53,19.5,7.76,21.89,8.39c6,1.59,21.3,3.1,26.33.92s27.59.67,27.59.67L576.93,238l.28,0,29.1,7a2.2,2.2,0,0,1,.45.17c1.33.66,8.18,4.18,8.47,7,.32,3.09,4.58,19.17.85,29.61-3.5,9.81-7.52,26.81-8,28.81a1.9,1.9,0,0,1-.13.38c-1.05,2.36-12,26.39-25.73,38.61a2.22,2.22,0,0,1-.52.34L560.92,360a2.2,2.2,0,0,1-2.92-1L506.39,256.42a2.17,2.17,0,0,0-1.34-1.12l-38-11a2.24,2.24,0,0,0-1.53.12c-10.21,4.49-27.3,3.57-38.21,9.75-.53.3-6.32,3.17-6.79,3.57-51.94,44.24-52,57.31-76.28,74.38a2.19,2.19,0,0,1-.49.39c-.19.11-.38.19,0,1.65l-34.33,8.3a4.7,4.7,0,0,0-2.09-1.6C305.28,339.79,296.75,336.64,297.59,336.88Z"/><path id="Chapeau_gauche" data-name="Chapeau gauche" class="cls-5" d="M377.72,292.3l-29.81,33.76s-17.41,18.7-50.32,10.82c20.49,21.67,28.59,29.23,41.45,37.06s41.17,16.25,41.17,16.25h4.48Z"/></g><path id="Cou" class="cls-6" d="M502.58,372.15,475,444.09s-43.77.22-52.92-4.6c0,0-26-11-28-14.15s-1.86-35.65-1.86-35.65L396.26,367l8.28-19.88,55.33,28.15L487,367l8.39-2.91,9,3.38Z"/><path id="Visage" class="cls-7" d="M441.05,252.12l55.95,39,8.9,57.21-6.18,16.34L487.92,377l-14.44,10.53s-8.37,4.69-12.52,5.16-12.2,1.78-17.29,0S414.76,375,414.76,375L402.2,362.51l-7.93-9.12-8.06-39.66,14.85-36.35,19.13-22.12Z"/><path class="cls-8" d="M497.75,367l1.66-1.74a3.17,3.17,0,0,0,.7-1.11l5.63-14.9a3.28,3.28,0,0,0,.17-1.67l-8.54-55a3.29,3.29,0,0,0-1.37-2.19L442.28,253a3.27,3.27,0,0,0-2.37-.55l-18.37,2.76a3.21,3.21,0,0,0-2,1.1l-18,20.79a3.29,3.29,0,0,0-.56.91l-14.27,34.93a3.25,3.25,0,0,0-.18,1.9l7.69,37.83a3.3,3.3,0,0,0,.74,1.51l7.29,8.37.16.18,12.25,12.13a3.64,3.64,0,0,0,.48.4c4.37,2.92,8.78,5.81,13.21,8.63,2.91,1.86,5.83,3.7,8.8,5.45,1.86,1.1,6.11,3.46,5.74,3.13a26.51,26.51,0,0,1-2.68-2.92,19.44,19.44,0,0,0-3.17-2.75c-4.05-3.1-8.29-6-11.52-10a78.21,78.21,0,0,1-8-12.72A98.76,98.76,0,0,1,411.12,349c-1.84-5.52-.83-11-.9-16.72-.09-7.92-.3-15.93-1-23.8-.24-2.78-.1-5.76,1.48-8a11.39,11.39,0,0,1,2.6-2.54c7.11-5.3,20.31-9.31,27.88-2.79,2.65,2.28,5.54,5.14,6.38,8.64,1.49,6.17-2.46,12.85-1.39,19.24.57,3.33-1.87,4.54-4.37,6.62-8.51,7.07-3.73,14.73,4.89,14.81,16.42.15,15.11-2.53,15.13-5.23,0-3-5.52-4.4-6.88-6.66a3.6,3.6,0,0,1-.49-1.18c-.45-2.17.26-4.92.16-7.22s-.17-4.32-.33-6.48c-.48-6.46-1.35-12.88-2.46-19.26-1.22-6.94-6.8-13.77-11.55-19-9.26-10.22-1.72-16.69,8.61-7.68a80.39,80.39,0,0,0,6.83,4.78c7.7,5.25,9.54,13.33,12.27,21.66a5.42,5.42,0,0,1,.38,1.72c0,2.86-3.56,4.74-4.68,7.2-1.4,3.06.14,5.19,2.84,6.88a91.53,91.53,0,0,0,10.13,5.58c3.4,1.59,7.05,2.58,10,5.06,6.92,5.82,9.65,15.87,8.34,24.55l-3.69,24.37C490.72,376.68,495.49,369.35,497.75,367Z"/><path id="Sourcil_gauche" data-name="Sourcil gauche" class="cls-9" d="M405.69,285.89a43.54,43.54,0,0,1,5.13-2.53c1.64-.47,4-1.5,5.77-1.35a50.33,50.33,0,0,1,6.3.94,44.13,44.13,0,0,1,6.62,1.63c3.37,1.3,7,2.14,10.17,3.87a48.8,48.8,0,0,1,4.6,3.18,3.2,3.2,0,0,0,.91.35,1.49,1.49,0,0,0,.83-.28c.78-.57.77-3.3-.33-5.37-1.21-2.27-3.44-3.18-6.12-4.22a40.14,40.14,0,0,0-11.37-2.35,66.68,66.68,0,0,0-7.33-.5,23.28,23.28,0,0,0-5.3.47C412,280.44,405.69,285.89,405.69,285.89Z"/><path id="Sourcil_droit" data-name="Sourcil droit" class="cls-9" d="M507.47,289a.17.17,0,0,1,0,.07c0,.1-.14.1-.22.09a15.58,15.58,0,0,1-3.74-1.32,25.79,25.79,0,0,0-4.7-2c-1.81-.45-3.6,0-5.42.32-3.28.49-6.55,1.12-9.84,1.55l-.3,0c-6.51.8-12.12,5.05-12.12,5.05a2.87,2.87,0,0,1-.91.31,1.4,1.4,0,0,1-.76-.41c-.68-.73-.33-3.85,1-6.1,1.44-2.47,3.67-3.27,6.37-4.19a33,33,0,0,1,11.14-1.52,55.6,55.6,0,0,1,7.07.18,17.57,17.57,0,0,1,5,1.08c3,1.12,6.14,3.25,7.45,6.8Z"/><path class="cls-10" d="M472.56,302.33a57.24,57.24,0,0,0-6,2.16,12.21,12.21,0,0,0,4.89,5.27c5.63,3.16,11.64.22,12.2-.06a30,30,0,0,0-4.05-3.59A29.24,29.24,0,0,0,472.56,302.33Z"/><path class="cls-11" d="M481.47,296.2a25.47,25.47,0,0,0-15,8.3s14.49,2.3,17.72-2.17a7.88,7.88,0,0,0,.84-1.43Z"/><path class="cls-12" d="M490.11,307.38c-1.63.8-3.7,2.41-6.5,2.32-6.23-.21-14.72-6.35-15.12-5.28,0,0,1.68-2.34,15.49-5,.27.36.55.72.83,1.07l3.41,4.45Z"/><path class="cls-11" d="M464.48,304.69A58.18,58.18,0,0,1,472,297.4a21.23,21.23,0,0,1,4.44-2.9,10.89,10.89,0,0,1,5.17-1,14.27,14.27,0,0,0-4.89,1.59,13.92,13.92,0,0,0-2.14,1.38c-.69.51-1.38,1-2.05,1.59-1.37,1.07-2.69,2.19-4,3.29S465.85,303.61,464.48,304.69Z"/><circle class="cls-13" cx="485.08" cy="303.73" r="4.09"/><ellipse id="iris" class="cls-12" cx="485.7" cy="303.06" rx="1.14" ry="0.98"/><path id="Pull" class="cls-14" d="M548.94,435.81s31.29,14.48,39.4,25.41,24.33,33.85,24.68,43.37l7.41,34.56,7.05,31.73v21.86s2.82,36.68-1.41,50.43,4.58,44.43-2.82,54.65,1.76,32.8-.71,38.09,1.06,40.9-10.22,49.72l2.47,23-402.72-1.82,3.37-30.58,15.7-59.4a102.11,102.11,0,0,0,6-25c1.41-13.75,2.42-27,6-44.46,11.64-56.74,9.88-64.5,9.88-64.5S269.22,537,268.51,531s-3.88-15.17-1.41-22.22c18.34-52.19,15.17-80.75,58.54-87.8s49.71-9.49,49.71-9.49L394,425.34l21.86,11.48,6.14,2.67,10.72,2.57,23.63,1.71Z"/><path class="cls-15" d="M271.85,805.77l-59.78,1.14L213.38,795l.92-8.35,3.18-18.06,7.46-28.25,6.2-23.46,3.29-10.36,1.51-6.69,1.19-8,1.49-14.76,3-21.82,3.85-19.64,2.76-14.6,4.52-30.49.33-5.34-.09-2.31,1.57-4.51,1.84-5.34,3.32-9.9,5.83-18.54,2.95-13.55-1.2-6.74-1.13-8.89.92-6.58,2.82-8.33L280.62,465,293,438.12,310.6,425a116.63,116.63,0,0,1,26.81-6.73c8.59-1.06,12.3-.49,21.58-2.55,11.15-2.47,11.35-4.54,16.36-4.1,7.37.63,8.6,4.61,22.52,14.24,4.42,3.06,9.43,8.73,18,10.17,43.7,7.3,22.82,29.74-59.47,4.18-19.16-5.95-33.88,6.73-42.59,22.86-7.12,13.2,9.94,41.86,11,56.75l3,40.23c.93,12.61-.59,28.83,4,40.54a42.74,42.74,0,0,0,3.8,7.38c15.46,26.1,23.08,97.66,38.05,133,8.08,19.08,25.43,44.48,67.39,67Z"/><path class="cls-16" d="M373,511.05c.93-5.57,1.87-10.65,2.74-14.46L374.35,509l1.37-6L373,522.88l2.74-8.77-4.7,53,3.33-35.5,4,29.51V525.44l3.82,21.25s-.64-.93-3.82-57.13l6.06,57.13L389,457.53l10.09-28,12.22-56.3"/><path class="cls-17" d="M411.39,369.11S411,372,411,372l.28,1.22.85,12.19,6.42,28.86-6.19-35.72,5.24,22.53s-1.86-5.34-4.49-34.93L420.3,402l-6.43-39.79-9.33-15.15c-1.13-3.25-5-9.47-5.66-13-3.32-17.2-1.86-38.4-1.5-39.73A116.31,116.31,0,0,1,405,280.67q2.46-3.78,4.94-7.53c1.3-1.95,2.32-4.07,3.76-5.92a28.21,28.21,0,0,1,11.05-8.16,25.05,25.05,0,0,1,12.4-2.35c6.85.69,14,5.42,19.14,9.83,5.82,5,10.24,11.4,15,17.39,5.21,6.58,10.93,12.8,15.41,19.89,7.7,12.19,9.32,25.65,12.75,39.29V355l-6.54,28.27-14,19.42-11.92,33.45L456.17,460.4l-22.31,38.26-18.07,36-11.15,23.26v5l15.57-24.23-5.77,24.23,5.19-13.46-6.15,38.46,16.15-41.15-6.34,38.65,14.42-36.54-9.62,47.88,7.69-12.31L434.63,611l12.31-31.53L441.06,611l4.72-10-2.11,14.61,4.42-11.92L447.71,619l2.69-11.34L452,621l7.21-53.46.58,27.5,8.84-37.11,4.43-10s1.92,26.34,1,32.69-6.54,33.65-6.54,33.65l.58,7.5,5.57-16.35L471.36,620l6.34-19-.77,19.23,4.42-22.31,1.16,15.19L489,565.19l.77,16.92,8.08-49.61s3.47,10.43,5.61,19.74l3.2,21.61.91-23.71-6.55-18.52,8.52,15.9L514,564.18l-1.87-16.47-7.67-18.15L520,566.61l-10.38-40.79,14.68,43.41L520.89,535l3.37,12.35,1.26-12c-1-15.39-2-41.89,2.17-46.08l9.62,35L539,513.66l-8.27-46.53,1.15-4.43,1.73,6.93,1.16-4,.57,7.11,2.12-5.77s9.42,29.62,16.53,30.19L539.42,465.4,546,442.79l12.56,30.93L547.46,430l7.43-55.41,5.77,8.37,1.73,45,1.15-58.57s-28-100.55-55.68-116.13S481,240,463.71,240.28s-39.81,9.81-47.31,15.29a229,229,0,0,0-21.17,18.18c-7.52,7.05-16.47,13.93-20.67,23.65-4.62,10.68-.58,40.11,2,48.19s4.9,14.42,4.9,14.42L380,394.35l-10.39,38.08-16.73,36.93-20.77,57.71,19.9-43.28-9.52,47.89,12.41-45.87-4.33,34.62,7.79-31.74-3.46,60.59,9.23-63.76s3.11,62.8,2.42,70c-.3,3.12,3-24,6.39-44.45"/><path class="cls-18" d="M446.05,339.61s2.82-4.68,8.36.53C454.41,340.14,447.91,342,446.05,339.61Z"/><path class="cls-18" d="M462,339.21c5-3.08,4.43.92,4.43.92s-2.94.92-4.05-.34a1.41,1.41,0,0,1-.38-.58"/><path id="paupiere" class="cls-11" d="M413.47,298.87c10.11-4.76,16.14-5.29,16.14-5.29s14.26-3,15.45,10.65c-2.88-1.57-5.8-3.08-8.78-4.44a44.52,44.52,0,0,0-5.77-2.26,7.23,7.23,0,0,0-4.85-.25c-1.14.43-4.13,3-5.34,3.13s-2.29-.66-3.58-.57c-1.06.08-1.49.45-2.42-.07C414,299.57,414.12,299,413.47,298.87Z"/><path class="cls-19" d="M413.47,298.87c-.12.08,5.39,12,13.59,12s18-6.63,18-6.63l-21.64-3.38Z"/><path id="contour_oeil" data-name="contour oeil" class="cls-12" d="M445.06,304.23s-6.31,4.37-13.95,2.54-10.79-6.36-10.79-6.36c4.8-4.59,9.6-4.24,13.47-4.14a19.81,19.81,0,0,1,5.2.7,5.43,5.43,0,0,1,1.22.51,7.8,7.8,0,0,1,1.11.88C443.06,299.88,445.22,301.67,445.06,304.23Z"/><path id="pupille" class="cls-13" d="M441.49,300.45a5.19,5.19,0,1,1-9.68-2.58c.41-.71,1.07-1.67,2-1.65a30.51,30.51,0,0,1,3.31.24,7.23,7.23,0,0,1,3.06,1A3.52,3.52,0,0,1,441.49,300.45Z"/><ellipse id="iris-2" data-name="iris" class="cls-12" cx="437.08" cy="299.93" rx="1.14" ry="0.98"/><g id="cils"><path class="cls-11" d="M414.91,297.12c-.09-.42.27-.77.55-1a5.64,5.64,0,0,1,1-.69,21.38,21.38,0,0,1,2.21-1.07c1.52-.6,3-1.22,4.6-1.69a26.64,26.64,0,0,1,4.84-.91,23.73,23.73,0,0,1,4.91-.05h0c.95.12,1.93.24,2.89.46a13.77,13.77,0,0,1,2.79,1h0a1.31,1.31,0,0,1,.2.11l.13.08.25.16.5.35c.33.23.65.48,1,.73a22.63,22.63,0,0,1,1.82,1.58,19.11,19.11,0,0,1,3,3.73c-.52-.59-1-1.22-1.57-1.78s-1.14-1.09-1.74-1.61a20.25,20.25,0,0,0-1.86-1.46c-.32-.23-.65-.44-1-.65l-.5-.31-.25-.15-.13-.07s-.1-.05-.06,0h0a13.14,13.14,0,0,0-2.66-.87,25.68,25.68,0,0,0-2.81-.4h0a29.93,29.93,0,0,0-4.83,0,30.43,30.43,0,0,0-4.74.78c-1.56.37-3.09.91-4.63,1.41-.77.26-1.53.53-2.26.86a5.36,5.36,0,0,0-1.05.59C415.23,296.4,414.86,296.7,414.91,297.12Z"/></g><g id="Bouche"><path class="cls-20" d="M437.88,360.91c11.8-5.43,14.67-2.42,14.67-2.42l14.35,1.9s4.58,1.38,4.94,2.3-5.5,3.74-5.5,3.74S431.8,363.71,437.88,360.91Z"/><path id="Reflet_levre_superieur" data-name="Reflet levre superieur" class="cls-21" d="M438.05,360.49c-.41-1.31,3.1-3.38,4.66-4.25,2.66-1.49,4-2.23,5.55-2,2.36.36,3.55,2,6.34,2a3.21,3.21,0,0,0,1.33-.36,9,9,0,0,1,6.06-.53,9.18,9.18,0,0,1,2.5,1c3.22,1.69,6,4.9,5.48,5.83-.13.24-.53.44-1.76.19a57.59,57.59,0,0,0-12.32-1.85C444.88,360,438.55,362.08,438.05,360.49Z"/><path class="cls-22" d="M437,361.06c-.45-1.31,3.38-3.38,5.09-4.25,2.9-1.49,4.36-2.23,6.07-2,2.57.36,3.87,2,6.92,2a3.67,3.67,0,0,0,1.45-.36,11.46,11.46,0,0,1,9.36.44c3.52,1.69,6.53,4.9,6,5.83-.15.24-.59.44-1.93.19A68.13,68.13,0,0,0,456.46,361C444.43,360.59,437.51,362.65,437,361.06Z"/><path class="cls-22" d="M438.54,362.4c-.68.82.54,2.86.65,3,2.22,3.65,7.62,4.19,8.63,4.3,3.18.32,3.08-.58,7-.46,4.87.14,5.36,1.56,8.52.9,0,0,4.54-.78,6-4.31a1.73,1.73,0,0,0,.17-1c-.13-.65-.83-1-1.46-1.17a15.61,15.61,0,0,0-3.34-.53c-2.61-.17-5.24,0-7.86-.06-3.05,0-11.8-.09-16.37-1C440.07,362.09,439,361.87,438.54,362.4Z"/><path class="cls-23" d="M446.67,366.61a2.73,2.73,0,0,0-.15-.56,1.24,1.24,0,0,0-.1-.2,2,2,0,0,1-.26-1.12l-3.17-.07c-.62,0-2.19-.38-2.34,0s1.94,2.3,4.43,2.95a7,7,0,0,0,1.63.25A10.51,10.51,0,0,0,446.67,366.61Z"/><path class="cls-23" d="M465.73,366.65c-.41-.51-1.14-1-3.87-1.35-.37-.05-.72-.08-1-.11a9.29,9.29,0,0,0-.55,1,7.47,7.47,0,0,0-.28,1c0,.27,0,.53-.05.8,0,0,0,.08,0,.11a5.52,5.52,0,0,0,.84.19c2.38.35,5.17-.3,5.25-1.11C466.05,367,465.93,366.89,465.73,366.65Z"/></g><ellipse class="cls-24" cx="458.86" cy="329.58" rx="3.13" ry="2.37"/><ellipse class="cls-24" cx="452.76" cy="381.96" rx="8.32" ry="4.44"/><path class="cls-11" d="M444.31,330.06a8,8,0,0,0-1.95,1.28,11.49,11.49,0,0,0-1.65,1.62,5.67,5.67,0,0,0-1.47,4.23,6.5,6.5,0,0,0,2.23,3.91,21.31,21.31,0,0,0,3.8,2.71,17.54,17.54,0,0,1-3.91-2.58,6.84,6.84,0,0,1-2.37-4,5.87,5.87,0,0,1,1.59-4.35A10.15,10.15,0,0,1,444.31,330.06Z"/><path class="cls-11" d="M465.81,330.06c.42.31.85.59,1.26.92a9,9,0,0,1,1.07,1.15,6.08,6.08,0,0,1,1.25,2.87,7.71,7.71,0,0,1-1.87,5.84,9.94,9.94,0,0,0,1.35-2.78,6.75,6.75,0,0,0,.27-3,6,6,0,0,0-1.15-2.8,9.23,9.23,0,0,0-1-1.17C466.61,330.72,466.2,330.4,465.81,330.06Z"/><path class="cls-25" d="M572.26,536.42c-20,22.08-38.84,39.24-42.76,69.64A94.75,94.75,0,0,0,531.38,640a13.4,13.4,0,0,1-2.41,11.2,45,45,0,0,0-5.59,9.51c-5.46,12.69-3.52,25-1.59,36.2,2.34,13.67,4.4,11.66,6.14,22.81a87.32,87.32,0,0,1-4.67,44.14c-4.59,11.81-7,9.69-9.87,19.74-5,17.33-4,9.74-3.05,23.11h0s56.13,5.47,68.63-1.19-2.08-14.76-9.35-13S550.85,778,561.75,778.6s50.86-14.53,25.43-20,2.42-12.11,2.42-12.11,27.25-7.27-3.63-22.4-12.72-15.14,4.84-15.75-4.21-16.62-11.5-23c-11.88-10.4,10-16.34,18.33-18.17a13.29,13.29,0,0,0,6.63-3.56c4.92-4.91,10.63-15-14.06-22.47-16.59-5-11.3-12.25-1.56-18.3,11.48-7.13,6.72-24.79-6.79-25.16l-1.27,0c-36.27-.77-2.33-34.37,9.16-44.85a13.5,13.5,0,0,0,4.3-8.28C595.47,533.35,596.22,510,572.26,536.42Z"/><path class="cls-26" d="M560.11,793.07c-.36-4.28-11.82-4.15-12.72-9.33-.76-4.34,6.93-6.58,6.92-12.74,0-5.2-5.27-5.84-5.28-10.85,0-5.47,5.83-6.89,7.07-15.09a17.52,17.52,0,0,0-.13-6.16c-1.17-6.54-6.14-6.21-7-12.63-1.17-8.8,7.93-11.23,6.77-20.87-.43-3.57-2.23-7.82.11-12.11a10.26,10.26,0,0,1,1.52-2.08c9.08-10.14,11.8-10.32,12.77-13.44,2.52-8.15-10.09-25.78-10.37-28.56a5.56,5.56,0,0,1,0-1,4.71,4.71,0,0,1,1.08-2.48c1.79-2.15,4.93-6.18,6.25-9.41a5.61,5.61,0,0,1,.72-1.29l9.61-12.16s7.77-9-11.13,3.92a4.75,4.75,0,0,1-7.44-3.91V605.79c0-.13,0-.25,0-.39-.14-1.64-1.2-12.11-5.13,1.55-1.88,6.53-2,13.5-1.46,20.23,1.13,13.82,1.76,27.17,1.62,41.06a8.56,8.56,0,0,1-.57,3.66,7.48,7.48,0,0,1-2.47,2.63c-3,2.19-6.55,3.74-9.25,6.33-2.23,2.15-2.93,5-3.61,7.95-1.56,6.84-1,14.42,4.11,19.67,8.88,9.08,1.22,28.79-.71,33.29a5.49,5.49,0,0,0-.28.92c-1.4,3.92-4.07,5-5.12,6.64-2.63,4.14,5.94,10.17,6,20.9,0,1.9,0,5.69-2.49,7.86-.91.8-2.07,1.3-3,2.13-2,1.86-2.47,5.8-1,7.74,1.88,2.41,5.85.44,7.16,2.48,1.67,2.58-3.62,7.33-2,9.83,1.19,1.83,5.22,1.15,7,.84C553.14,800.18,560.41,796.56,560.11,793.07Z"/><path class="cls-25" d="M299.7,472.13c-5.25,41,12.87,39.88,20,56.56,5.8,13.57.12,22,.95,39.23.64,13.21-2.72,23.52,3.46,37.5,4,9,11.09,16,14.95,25.18a76.88,76.88,0,0,1,6,31.1,9.76,9.76,0,0,1-.86,4.52,11.22,11.22,0,0,1-3.08,3.18c-30.09,24.29-34.06,68.17-13.22,99.73q-5.91,18.52-11.81,37.06l-94.59,2c-2.21-6.11-4.3-15-2-24.58,5.08-21.48,26.39-23.42,28.38-40.46,2-16.8-17.39-26.56-11.92-42.47,1.45-4.21,3-4.11,7.67-10.4C256,673.57,263.19,648.37,261.15,626c-.8-8.7-2.6-12.69,0-18.58,4.6-10.34,16.27-11.82,16.28-18.87,0-5-5.89-6.08-8.56-12.39-4.31-10.19,4.51-22.89,7.28-27.15C283.91,537.05,293.26,515.3,299.7,472.13Z"/><path class="cls-26" d="M299.7,472.13l2.68,74.81,7.43,57.3v34.37l-3.49,20.56v21.46l3.49,27.23s-1.65,26.41-7.43,34.66-11.55,38.78-11.55,38.78l-5,24.41h-14C238.84,778,227,762.87,245.44,759c46.3-9.65,55.49-32,17.42-32s-13.78-28.22,4.6-25.6,37.41-25.59,2.62-24.94c-12.43.24-14.94-2.84-15.8-5-2.14-5.44,11.5-16.05,19-21.88,15-11.63,24.1-14.43,23.69-20-.22-2.93-3.93-5.54-11.35-10.77-10.25-7.22-15.27-8.34-15.11-11,.23-3.54,9.56-3.25,19.41-12,3.48-3.08,6.62-5.86,6.28-9.17-.47-4.52-6.87-5-13.65-12.65-3.6-4.08-7.68-10.63-5.83-13.17,1.5-2.07,5.37.64,10-1.38,5.28-2.27,9.4-9.66,7.93-15.1-2-7.42-13.48-8-13.6-12.84,0-2.08,2-4.87,10.2-8.31,5.94-2.47,7.48-4.69,7.55-6.42.15-3.86-7.09-5.15-8.31-10.58-.93-4.15,2.19-4.08,4-9.29A78.9,78.9,0,0,0,299.7,472.13Z"/></g></g></svg>